<svg width="30" height="30" viewBox="0 0 30 30" fill="none" xmlns="http://www.w3.org/2000/svg">
<rect width="30" height="30" fill="#1E1E1E"/>
<rect width="1440" height="4816" transform="translate(-833 -1421)" fill="#121316"/>
<rect x="-103" y="-26" width="236" height="115" rx="10" fill="white" fill-opacity="0.08"/>
<g clip-path="url(#clip0_0_1)">
<path fill-rule="evenodd" clip-rule="evenodd" d="M14.9948 0.75C11.456 0.751836 8.03324 2.0052 5.33856 4.28598C2.64388 6.56676 0.852977 9.72623 0.286083 13.1994C-0.280811 16.6726 0.413264 20.2331 2.24421 23.2442C4.07516 26.2553 6.92358 28.5206 10.2802 29.6351C11.0207 29.7725 11.2996 29.3136 11.2996 28.9233C11.2996 28.5331 11.2848 27.4017 11.2798 26.1647C7.13297 27.0605 6.2567 24.4147 6.2567 24.4147C5.58036 22.6967 4.60288 22.2451 4.60288 22.2451C3.25021 21.3272 4.70409 21.3444 4.70409 21.3444C6.2024 21.4499 6.98981 22.8734 6.98981 22.8734C8.3178 25.1388 10.4776 24.4835 11.3267 24.1006C11.46 23.1409 11.8476 22.4881 12.2746 22.1175C8.96204 21.7444 5.48162 20.4731 5.48162 14.7937C5.46109 13.3208 6.01079 11.8964 7.01696 10.8152C6.86392 10.4422 6.35296 8.93522 7.16259 6.8883C7.16259 6.8883 8.41407 6.4907 11.2626 8.40754C13.7058 7.74318 16.2837 7.74318 18.7269 8.40754C21.573 6.4907 22.822 6.8883 22.822 6.8883C23.6341 8.93031 23.1231 10.4373 22.9701 10.8152C23.9795 11.8966 24.5303 13.3235 24.5079 14.7986C24.5079 20.4902 21.0201 21.7444 17.7026 22.1101C18.2357 22.5715 18.7121 23.4723 18.7121 24.8565C18.7121 26.8396 18.6949 28.4349 18.6949 28.9233C18.6949 29.3185 18.9639 29.7799 19.7192 29.6351C23.0762 28.5204 25.9249 26.2547 27.7558 23.2431C29.5867 20.2316 30.2804 16.6706 29.7129 13.197C29.1454 9.72349 27.3536 6.56399 24.658 4.2836C21.9624 2.00321 18.5389 0.750672 14.9997 0.75H14.9948Z" fill="white" fill-opacity="0.1"/>
<path d="M5.73295 22.0316C5.70086 22.1052 5.58238 22.1273 5.48611 22.0757C5.38984 22.0242 5.31826 21.9285 5.35282 21.8524C5.38738 21.7763 5.50339 21.7567 5.59966 21.8082C5.69593 21.8598 5.76997 21.9579 5.73295 22.0316Z" fill="#2E2E2E"/>
<path d="M6.33784 22.7016C6.28672 22.7272 6.22824 22.7343 6.1724 22.7218C6.11657 22.7093 6.06686 22.6778 6.03176 22.6329C5.9355 22.5298 5.91574 22.3874 5.98979 22.3236C6.06384 22.2598 6.19715 22.2893 6.29341 22.3923C6.38968 22.4954 6.41189 22.6378 6.33784 22.7016Z" fill="#2E2E2E"/>
<path d="M6.92538 23.5532C6.83405 23.617 6.67853 23.5532 6.59214 23.4256C6.56825 23.4027 6.54926 23.3753 6.53628 23.3449C6.5233 23.3145 6.5166 23.2819 6.5166 23.2489C6.5166 23.2159 6.5233 23.1832 6.53628 23.1529C6.54926 23.1225 6.56825 23.0951 6.59214 23.0722C6.68347 23.0108 6.83899 23.0722 6.92538 23.1974C7.01177 23.3225 7.01424 23.4894 6.92538 23.5532Z" fill="#2E2E2E"/>
<path d="M7.72252 24.3779C7.64106 24.4687 7.47568 24.4442 7.33992 24.3215C7.20416 24.1988 7.17206 24.0319 7.25352 23.9435C7.33498 23.8551 7.50036 23.8797 7.64106 24C7.78175 24.1202 7.80891 24.2896 7.72252 24.3779Z" fill="#2E2E2E"/>
<path d="M8.84066 24.8589C8.80364 24.9743 8.63579 25.0258 8.46794 24.9767C8.30009 24.9276 8.18901 24.7902 8.2211 24.6724C8.25319 24.5546 8.42351 24.5006 8.59383 24.5546C8.76414 24.6086 8.87275 24.7386 8.84066 24.8589Z" fill="#2E2E2E"/>
<path d="M10.0602 24.9424C10.0602 25.0627 9.92198 25.1658 9.74426 25.1682C9.56653 25.1707 9.4209 25.0725 9.4209 24.9522C9.4209 24.832 9.55912 24.7289 9.73684 24.7264C9.91457 24.724 10.0602 24.8197 10.0602 24.9424Z" fill="#2E2E2E"/>
<path d="M11.1955 24.7534C11.2177 24.8737 11.0943 24.9989 10.9165 25.0283C10.7388 25.0578 10.5833 24.9866 10.5611 24.8688C10.5389 24.751 10.6672 24.6233 10.84 24.5914C11.0128 24.5595 11.1733 24.6332 11.1955 24.7534Z" fill="#2E2E2E"/>
</g>
<defs>
<clipPath id="clip0_0_1">
<rect width="30" height="30" rx="6" fill="white"/>
</clipPath>
</defs>
</svg>
