<svg width="30" height="30" viewBox="0 0 30 30" fill="none" xmlns="http://www.w3.org/2000/svg">
<rect width="30" height="30" fill="#1E1E1E"/>
<rect width="1440" height="4816" transform="translate(-577 -1421)" fill="#121316"/>
<rect x="-103" y="-26" width="236" height="115" rx="10" fill="white" fill-opacity="0.08"/>
<g clip-path="url(#clip0_0_1)">
<path d="M0 4.00211C0 3.03684 0.337847 2.24051 1.01351 1.61312C1.68918 0.985694 2.56758 0.671997 3.64865 0.671997C4.71043 0.671997 5.56949 0.980858 6.22587 1.59864C6.90153 2.2357 7.23938 3.0658 7.23938 4.08899C7.23938 5.01563 6.91121 5.78781 6.25483 6.40559C5.57916 7.04265 4.69112 7.36119 3.59073 7.36119H3.56178C2.49999 7.36119 1.64094 7.04265 0.984556 6.40559C0.328176 5.76852 0 4.96735 0 4.00211ZM0.376448 29.3399V9.99632H6.80502V29.3399H0.376448ZM10.3668 29.3399H16.7954V18.5388C16.7954 17.8631 16.8726 17.3419 17.027 16.9751C17.2973 16.3187 17.7075 15.7637 18.2577 15.31C18.8079 14.8563 19.4981 14.6295 20.3282 14.6295C22.4904 14.6295 23.5714 16.087 23.5714 19.0021V29.3399H30V18.2492C30 15.3921 29.3243 13.2251 27.973 11.7483C26.6216 10.2714 24.8359 9.533 22.6158 9.533C20.1255 9.533 18.1853 10.6044 16.7954 12.7473V12.8052H16.7664L16.7954 12.7473V9.99632H10.3668C10.4054 10.6141 10.4247 12.5349 10.4247 15.7589C10.4247 18.9828 10.4054 23.5098 10.3668 29.3399Z" fill="white" fill-opacity="0.1"/>
</g>
<defs>
<clipPath id="clip0_0_1">
<rect width="30" height="30" fill="white"/>
</clipPath>
</defs>
</svg>
